<svg xmlns="http://www.w3.org/2000/svg" width="124" height="124" viewBox="0 0 124 124">
  <g fill="none" fill-rule="evenodd" transform="translate(2 2)">
    <path fill="#FCBA7F" stroke="#1C1F2A" stroke-linejoin="round" stroke-width="3.51" d="M59.6700017,0 C61.3906733,0 63.0943344,0.0728309091 64.7780703,0.215578178 C63.0442731,2.4087646 62.0100018,5.1785989 62.0100018,8.19000023 C62.0100018,12.7564911 64.3882786,16.7675056 67.9735818,19.0515209 C67.141208,21.5189372 66.6900019,24.1617765 66.6900019,26.9100008 C66.6900019,40.4796375 77.6903659,51.4800015 91.2600026,51.4800015 C94.2540163,51.4800015 97.1229519,50.9444784 99.7754914,49.9635552 C102.128519,53.0203048 105.824237,54.9900016 109.980003,54.9900016 C113.385905,54.9900016 116.482803,53.6669963 118.784817,51.5068656 C119.151369,54.1757113 119.340003,56.9008276 119.340003,59.6700017 C119.340003,92.6248337 92.6248337,119.340003 59.6700017,119.340003 C26.7151697,119.340003 0,92.6248337 0,59.6700017 C0,26.7151697 26.7151697,0 59.6700017,0 Z"/>
    <circle cx="96.525" cy="6.435" r="6.435" fill="#B77748" stroke="#302D31" stroke-width="2.34"/>
    <circle cx="90.675" cy="26.325" r="5.265" fill="#B77748" stroke="#302D31" stroke-width="2.34"/>
    <circle cx="114.66" cy="33.93" r="4.68" fill="#B77748" stroke="#302D31" stroke-width="2.34"/>
    <circle cx="28.08" cy="53.82" r="9.36" fill="#B77748" stroke="#302D31" stroke-width="2.34"/>
    <circle cx="72.54" cy="84.24" r="8.19" fill="#B77748" stroke="#302D31" stroke-width="2.34"/>
    <circle cx="35.1" cy="81.9" r="5.85" fill="#B77748" stroke="#302D31" stroke-width="2.34"/>
    <circle cx="56.16" cy="61.425" r="5.265" fill="#B77748" stroke="#302D31" stroke-width="2.34"/>
    <circle cx="47.385" cy="34.515" r="5.265" fill="#B77748" stroke="#302D31" stroke-width="2.34"/>
    <path stroke="#1D1F29" stroke-linecap="round" stroke-width="2.34" d="M108.2662,73.5933051 C108.921259,71.2120661 109.397367,68.7566998 109.679154,66.2425748 M62.0100018,108.810003 C76.421973,108.810003 89.3495271,102.454458 98.1428208,92.3932099 M102.017335,87.3170823 C103.983367,84.3523295 105.628656,81.1563974 106.903707,77.7787817"/>
  </g>
</svg>
